<svg width="24" height="24" viewBox="0 0 24 24" fill="none" xmlns="http://www.w3.org/2000/svg">
<path d="M12.6133 0.390404C12.7682 0.0915764 13.0505 -0.0357023 13.46 0.00856855C13.637 0.0528394 13.7754 0.141381 13.875 0.274194C13.9857 0.395938 14.0133 0.528751 13.958 0.672631C13.139 2.23318 12.3532 3.80479 11.6006 5.38748C8.9222 11.0541 6.66439 16.8149 4.82715 22.6697C4.66113 22.9907 4.37891 23.1124 3.98047 23.0349C3.5931 22.9464 3.42708 22.725 3.48242 22.3709C3.99154 20.7329 4.53385 19.1059 5.10938 17.49C7.1901 11.6795 9.69141 5.9796 12.6133 0.390404ZM18.7559 0.423608C18.9108 0.113712 19.193 -0.0135669 19.6025 0.0417717C20.012 0.163516 20.1781 0.384871 20.1006 0.705834C19.3258 2.27745 18.5898 3.86013 17.8926 5.45388C15.4023 11.1427 13.3936 16.9311 11.8662 22.8191C11.7113 23.1179 11.4235 23.2397 11.0029 23.1843C10.6156 23.0626 10.4551 22.8412 10.5215 22.5203C10.9531 20.8823 11.418 19.2442 11.916 17.6062C13.7201 11.7625 16 6.03494 18.7559 0.423608ZM1.1084 9.30544C0.721029 9.23904 0.527344 9.05089 0.527344 8.74099C0.527344 8.42003 0.721029 8.24848 1.1084 8.22634C2.73535 8.31488 4.3623 8.37022 5.98926 8.39236C11.7002 8.4809 17.3945 8.20421 23.0723 7.56228C23.2493 7.55121 23.3932 7.60655 23.5039 7.7283C23.6257 7.83897 23.6865 7.96072 23.6865 8.09353C23.6865 8.24848 23.6257 8.37576 23.5039 8.47537C23.3822 8.56391 23.2383 8.61371 23.0723 8.62478C21.4674 8.81293 19.8571 8.96788 18.2412 9.08962C12.5413 9.53233 6.8304 9.60427 1.1084 9.30544ZM1.1582 14.6013C0.759766 14.5571 0.560547 14.38 0.560547 14.0701C0.560547 13.7491 0.759766 13.5665 1.1582 13.5222C2.75195 13.5001 4.3457 13.4614 5.93945 13.406C11.5286 13.2068 17.1012 12.8305 22.6572 12.2771C22.8343 12.2661 22.9837 12.3214 23.1055 12.4431C23.2272 12.5538 23.2881 12.6756 23.2881 12.8084C23.2881 13.1183 23.0778 13.2954 22.6572 13.3396C21.0745 13.5056 19.4919 13.6551 17.9092 13.7879C12.3421 14.2416 6.75846 14.5128 1.1582 14.6013Z" fill="#240532"/>
</svg>
